<?xml version="1.0" encoding="UTF-8" standalone="no"?>
<!DOCTYPE svg PUBLIC "-//W3C//DTD SVG 1.1//EN"
 "http://www.w3.org/Graphics/SVG/1.1/DTD/svg11.dtd">
<!-- Generated by graphviz version 2.40.1 (0)
 -->
<!-- Title: G Pages: 1 -->
<svg width="1361pt" height="523pt"
 viewBox="0.00 0.00 1360.50 523.00" xmlns="http://www.w3.org/2000/svg" xmlns:xlink="http://www.w3.org/1999/xlink">
<g id="graph0" class="graph" transform="scale(1 1) rotate(0) translate(4 519)">
<title>G</title>
<polygon fill="#ffffff" stroke="transparent" points="-4,4 -4,-519 1356.5,-519 1356.5,4 -4,4"/>
<text text-anchor="middle" x="676.25" y="-500.6" font-family="Arial" font-size="13.00" fill="#000000">Node and flows — v6</text>
<!-- guest -->
<g id="node1" class="node">
<title>guest</title>
<path fill="#f8fafc" stroke="#334155" d="M83,-369C83,-369 12,-369 12,-369 6,-369 0,-363 0,-357 0,-357 0,-341 0,-341 0,-335 6,-329 12,-329 12,-329 83,-329 83,-329 89,-329 95,-335 95,-341 95,-341 95,-357 95,-357 95,-363 89,-369 83,-369"/>
<text text-anchor="middle" x="47.5" y="-352.4" font-family="Arial" font-size="12.00" fill="#000000">Linux guest</text>
<text text-anchor="middle" x="47.5" y="-339.4" font-family="Arial" font-size="12.00" fill="#000000">/dev/vda</text>
</g>
<!-- qemu -->
<g id="node2" class="node">
<title>qemu</title>
<path fill="#f8fafc" stroke="#334155" d="M280,-194.5C280,-194.5 89,-194.5 89,-194.5 83,-194.5 77,-188.5 77,-182.5 77,-182.5 77,-166.5 77,-166.5 77,-160.5 83,-154.5 89,-154.5 89,-154.5 280,-154.5 280,-154.5 286,-154.5 292,-160.5 292,-166.5 292,-166.5 292,-182.5 292,-182.5 292,-188.5 286,-194.5 280,-194.5"/>
<text text-anchor="middle" x="184.5" y="-177.9" font-family="Arial" font-size="12.00" fill="#000000">QEMU &#160;· &#160;virtio&#45;blk</text>
<text text-anchor="middle" x="184.5" y="-164.9" font-family="Arial" font-size="12.00" fill="#000000">owns the local CoW format (§7)</text>
</g>
<!-- guest&#45;&gt;qemu -->
<g id="edge1" class="edge">
<title>guest&#45;&gt;qemu</title>
<path fill="none" stroke="#475569" d="M41.4768,-328.8553C35.2983,-303.8722 29.071,-261.0384 48.5,-232 57.9735,-217.8409 71.6936,-207.1582 86.8171,-199.1011"/>
<polygon fill="#475569" stroke="#475569" points="88.4323,-202.2072 95.8622,-194.6542 85.3439,-195.9253 88.4323,-202.2072"/>
<text text-anchor="middle" x="105.5" y="-262.5" font-family="Arial" font-size="10.00" fill="#000000"> &#160;READ · WRITE · FLUSH</text>
</g>
<!-- chain -->
<g id="node3" class="node">
<title>chain</title>
<path fill="#eef2f7" stroke="#334155" d="M451.5,-66C451.5,-66 119.5,-66 119.5,-66 113.5,-66 107.5,-60 107.5,-54 107.5,-54 107.5,-12 107.5,-12 107.5,-6 113.5,0 119.5,0 119.5,0 451.5,0 451.5,0 457.5,0 463.5,-6 463.5,-12 463.5,-12 463.5,-54 463.5,-54 463.5,-60 457.5,-66 451.5,-66"/>
<text text-anchor="middle" x="285.5" y="-49.4" font-family="Arial" font-size="12.00" fill="#000000">local qcow2 chain</text>
<text text-anchor="middle" x="285.5" y="-36.4" font-family="Arial" font-size="12.00" fill="#000000">layers/&lt;layer&#45;id&gt;.qcow2 — one store for every volume</text>
<text text-anchor="middle" x="285.5" y="-23.4" font-family="Arial" font-size="12.00" fill="#000000">on the host, so a clone shares its parent&#39;s files</text>
<text text-anchor="middle" x="285.5" y="-10.4" font-family="Arial" font-size="12.00" fill="#000000">volumes/&lt;id&gt;/active/current → the tip</text>
</g>
<!-- qemu&#45;&gt;chain -->
<g id="edge2" class="edge">
<title>qemu&#45;&gt;chain</title>
<path fill="none" stroke="#475569" d="M194.9657,-154.3306C205.1081,-135.4744 221.4252,-106.8715 238.5,-84 241.0121,-80.6351 243.712,-77.2405 246.5019,-73.8868"/>
<polygon fill="#475569" stroke="#475569" points="249.2699,-76.0357 253.1291,-66.1687 243.9591,-71.4755 249.2699,-76.0357"/>
<text text-anchor="start" x="238.5" y="-109" font-family="Arial" font-size="10.00" fill="#000000"> &#160;WRITE → qcow2 → ACK</text>
<text text-anchor="start" x="238.5" y="-98" font-family="Arial" font-size="10.00" fill="#000000"> &#160;FLUSH → fdatasync → ACK</text>
<text text-anchor="start" x="238.5" y="-87" font-family="Arial" font-size="10.00" fill="#000000"> &#160;(LOCAL durability, §6)</text>
</g>
<!-- agent -->
<g id="node4" class="node">
<title>agent</title>
<path fill="#eef2f7" stroke="#334155" d="M579.5,-382C579.5,-382 193.5,-382 193.5,-382 187.5,-382 181.5,-376 181.5,-370 181.5,-370 181.5,-328 181.5,-328 181.5,-322 187.5,-316 193.5,-316 193.5,-316 579.5,-316 579.5,-316 585.5,-316 591.5,-322 591.5,-328 591.5,-328 591.5,-370 591.5,-370 591.5,-376 585.5,-382 579.5,-382"/>
<text text-anchor="middle" x="386.5" y="-365.4" font-family="Arial" font-size="12.00" fill="#000000">Volume Agent</text>
<text text-anchor="middle" x="386.5" y="-352.4" font-family="Arial" font-size="12.00" fill="#000000">does NOT launch the VM: it prepares the chain and speaks QMP</text>
<text text-anchor="middle" x="386.5" y="-339.4" font-family="Arial" font-size="12.00" fill="#000000">rotates by size, by the RPO age target, or when a snapshot asks</text>
<text text-anchor="middle" x="386.5" y="-326.4" font-family="Arial" font-size="12.00" fill="#000000">publishes · recovers</text>
</g>
<!-- agent&#45;&gt;qemu -->
<g id="edge3" class="edge">
<title>agent&#45;&gt;qemu</title>
<path fill="none" stroke="#475569" stroke-dasharray="5,2" d="M213.7789,-315.8361C200.8014,-310.5879 190.7219,-304.6566 185.5,-298 164.9637,-271.8216 168.9564,-232.0027 175.2868,-204.6983"/>
<polygon fill="#475569" stroke="#475569" points="178.7056,-205.4554 177.7812,-194.901 171.922,-203.7282 178.7056,-205.4554"/>
<text text-anchor="start" x="185.5" y="-290" font-family="Arial" font-size="10.00" fill="#000000"> &#160;QMP: query&#45;block</text>
<text text-anchor="start" x="185.5" y="-279" font-family="Arial" font-size="10.00" fill="#000000"> &#160;blockdev&#45;snapshot&#45;sync (rotate)</text>
<text text-anchor="start" x="185.5" y="-268" font-family="Arial" font-size="10.00" fill="#000000"> &#160;stop (fence, and pause when nothing</text>
<text text-anchor="start" x="185.5" y="-257" font-family="Arial" font-size="10.00" fill="#000000"> &#160;confirms this host&#39;s claim)</text>
<text text-anchor="start" x="185.5" y="-246" font-family="Arial" font-size="10.00" fill="#000000"> &#160;cont (give the guest back when both</text>
<text text-anchor="start" x="185.5" y="-235" font-family="Arial" font-size="10.00" fill="#000000"> &#160;paths answer again)</text>
</g>
<!-- agent&#45;&gt;chain -->
<g id="edge4" class="edge">
<title>agent&#45;&gt;chain</title>
<path fill="none" stroke="#475569" stroke-dasharray="5,2" d="M388.5728,-315.6525C391.8327,-253.3121 395.612,-121.979 372.5,-84 370.1321,-80.109 367.3471,-76.4822 364.254,-73.106"/>
<polygon fill="#475569" stroke="#475569" points="366.6507,-70.5547 357.0333,-66.1099 361.7798,-75.5821 366.6507,-70.5547"/>
<text text-anchor="start" x="390.5" y="-177.5" font-family="Arial" font-size="10.00" fill="#000000"> &#160;qemu&#45;img create / info / rebase</text>
<text text-anchor="start" x="390.5" y="-166.5" font-family="Arial" font-size="10.00" fill="#000000"> &#160;(no parser of our own, §7)</text>
</g>
<!-- state -->
<g id="node5" class="node">
<title>state</title>
<path fill="#f8fafc" stroke="#334155" d="M1068.5,-375.5C1068.5,-375.5 734.5,-375.5 734.5,-375.5 728.5,-375.5 722.5,-369.5 722.5,-363.5 722.5,-363.5 722.5,-334.5 722.5,-334.5 722.5,-328.5 728.5,-322.5 734.5,-322.5 734.5,-322.5 1068.5,-322.5 1068.5,-322.5 1074.5,-322.5 1080.5,-328.5 1080.5,-334.5 1080.5,-334.5 1080.5,-363.5 1080.5,-363.5 1080.5,-369.5 1074.5,-375.5 1068.5,-375.5"/>
<text text-anchor="middle" x="901.5" y="-358.9" font-family="Arial" font-size="12.00" fill="#000000">state.json</text>
<text text-anchor="middle" x="901.5" y="-345.9" font-family="Arial" font-size="12.00" fill="#000000">commits this host holds · sealed layer not yet published</text>
<text text-anchor="middle" x="901.5" y="-332.9" font-family="Arial" font-size="12.00" fill="#000000">the epoch it last held · fencing record</text>
</g>
<!-- agent&#45;&gt;state -->
<g id="edge5" class="edge">
<title>agent&#45;&gt;state</title>
<path fill="none" stroke="#475569" stroke-dasharray="5,2" d="M591.5214,-349C631.1752,-349 672.5629,-349 711.704,-349"/>
<polygon fill="#475569" stroke="#475569" points="712.1405,-352.5001 722.1405,-349 712.1404,-345.5001 712.1405,-352.5001"/>
<text text-anchor="middle" x="657" y="-355" font-family="Arial" font-size="10.00" fill="#000000"> &#160;durable, read on open</text>
</g>
<!-- s3 -->
<g id="node8" class="node">
<title>s3</title>
<path fill="#eef2f7" stroke="#334155" d="M924,-214C924,-214 577,-214 577,-214 571,-214 565,-208 565,-202 565,-202 565,-147 565,-147 565,-141 571,-135 577,-135 577,-135 924,-135 924,-135 930,-135 936,-141 936,-147 936,-147 936,-202 936,-202 936,-208 930,-214 924,-214"/>
<text text-anchor="middle" x="750.5" y="-197.4" font-family="Arial" font-size="12.00" fill="#000000">Object store</text>
<text text-anchor="middle" x="750.5" y="-184.4" font-family="Arial" font-size="12.00" fill="#000000">layers/sha256/… (immutable, content&#45;addressed)</text>
<text text-anchor="middle" x="750.5" y="-171.4" font-family="Arial" font-size="12.00" fill="#000000">volumes/&lt;id&gt;/commits/&lt;commit&gt;.json (create&#45;only)</text>
<text text-anchor="middle" x="750.5" y="-158.4" font-family="Arial" font-size="12.00" fill="#000000">volumes/&lt;id&gt;/HEAD (the one mutable object, under CAS)</text>
<text text-anchor="middle" x="750.5" y="-145.4" font-family="Arial" font-size="12.00" fill="#000000">volumes/&lt;id&gt;/epoch · descriptor.json</text>
</g>
<!-- agent&#45;&gt;s3 -->
<g id="edge8" class="edge">
<title>agent&#45;&gt;s3</title>
<path fill="none" stroke="#475569" d="M431.1248,-315.9987C467.2735,-290.4289 520.2718,-255.5109 570.5,-232 581.4017,-226.8971 592.876,-222.0758 604.5349,-217.5602"/>
<polygon fill="#475569" stroke="#475569" points="605.8064,-220.8213 613.9172,-214.0047 603.3258,-214.2755 605.8064,-220.8213"/>
<text text-anchor="start" x="570.5" y="-284.5" font-family="Arial" font-size="10.00" fill="#000000"> &#160;COMMIT, always in this order:</text>
<text text-anchor="start" x="570.5" y="-273.5" font-family="Arial" font-size="10.00" fill="#000000"> &#160;1. seal the layer with the DEK (64 KiB frames)</text>
<text text-anchor="start" x="570.5" y="-262.5" font-family="Arial" font-size="10.00" fill="#000000"> &#160;2. PUT layer</text>
<text text-anchor="start" x="570.5" y="-251.5" font-family="Arial" font-size="10.00" fill="#000000"> &#160;3. PUT manifest</text>
<text text-anchor="start" x="570.5" y="-240.5" font-family="Arial" font-size="10.00" fill="#000000"> &#160;4. CAS on HEAD &#160;← the commit exists only here</text>
</g>
<!-- cp -->
<g id="node6" class="node">
<title>cp</title>
<path fill="#f8fafc" stroke="#334155" d="M371,-493C371,-493 132,-493 132,-493 126,-493 120,-487 120,-481 120,-481 120,-452 120,-452 120,-446 126,-440 132,-440 132,-440 371,-440 371,-440 377,-440 383,-446 383,-452 383,-452 383,-481 383,-481 383,-487 377,-493 371,-493"/>
<text text-anchor="middle" x="251.5" y="-476.4" font-family="Arial" font-size="12.00" fill="#000000">Control Plane</text>
<text text-anchor="middle" x="251.5" y="-463.4" font-family="Arial" font-size="12.00" fill="#000000">term&#45;guarded catalogue · desired state</text>
<text text-anchor="middle" x="251.5" y="-450.4" font-family="Arial" font-size="12.00" fill="#000000">leases · GetVolumeKeys</text>
</g>
<!-- cp&#45;&gt;agent -->
<g id="edge6" class="edge">
<title>cp&#45;&gt;agent</title>
<path fill="none" stroke="#475569" d="M282.1336,-439.8374C299.3638,-424.8408 321.2171,-405.8203 340.4694,-389.0637"/>
<polygon fill="#475569" stroke="#475569" points="343.0148,-391.4883 348.26,-382.2829 338.4191,-386.2081 343.0148,-391.4883"/>
<text text-anchor="start" x="327.5" y="-414" font-family="Arial" font-size="10.00" fill="#000000"> &#160;desired state · epoch</text>
<text text-anchor="start" x="327.5" y="-403" font-family="Arial" font-size="10.00" fill="#000000"> &#160;heartbeat / lease</text>
</g>
<!-- kms -->
<g id="node7" class="node">
<title>kms</title>
<path fill="#f8fafc" stroke="#334155" d="M629.5,-486.5C629.5,-486.5 413.5,-486.5 413.5,-486.5 407.5,-486.5 401.5,-480.5 401.5,-474.5 401.5,-474.5 401.5,-458.5 401.5,-458.5 401.5,-452.5 407.5,-446.5 413.5,-446.5 413.5,-446.5 629.5,-446.5 629.5,-446.5 635.5,-446.5 641.5,-452.5 641.5,-458.5 641.5,-458.5 641.5,-474.5 641.5,-474.5 641.5,-480.5 635.5,-486.5 629.5,-486.5"/>
<text text-anchor="middle" x="521.5" y="-469.9" font-family="Arial" font-size="12.00" fill="#000000">KMS / Vault (KEK)</text>
<text text-anchor="middle" x="521.5" y="-456.9" font-family="Arial" font-size="12.00" fill="#000000">wrapped DEK, bound to the volume</text>
</g>
<!-- kms&#45;&gt;agent -->
<g id="edge7" class="edge">
<title>kms&#45;&gt;agent</title>
<path fill="none" stroke="#475569" stroke-dasharray="5,2" d="M498.2927,-446.301C480.1522,-430.5121 454.3703,-408.0723 432.1364,-388.7206"/>
<polygon fill="#475569" stroke="#475569" points="434.2792,-385.9456 424.4383,-382.0204 429.6835,-391.2257 434.2792,-385.9456"/>
<text text-anchor="start" x="469.5" y="-414" font-family="Arial" font-size="10.00" fill="#000000"> &#160;unwrap the DEK</text>
<text text-anchor="start" x="469.5" y="-403" font-family="Arial" font-size="10.00" fill="#000000"> &#160;(only for as long as the operation lasts)</text>
</g>
<!-- s3&#45;&gt;agent -->
<g id="edge9" class="edge">
<title>s3&#45;&gt;agent</title>
<path fill="none" stroke="#475569" stroke-dasharray="5,2" d="M797.9623,-214.2518C802.2065,-219.7699 805.8819,-225.7178 808.5,-232 819.784,-259.0761 827.9578,-276.0491 808.5,-298 804.673,-302.3173 703.8368,-314.5915 601.7048,-326.0161"/>
<polygon fill="#475569" stroke="#475569" points="601.0515,-322.5672 591.5011,-327.1543 601.8275,-329.5241 601.0515,-322.5672"/>
<text text-anchor="start" x="819.5" y="-273.5" font-family="Arial" font-size="10.00" fill="#000000"> &#160;RECOVERY: read HEAD, walk parent_commit_id,</text>
<text text-anchor="start" x="819.5" y="-262.5" font-family="Arial" font-size="10.00" fill="#000000"> &#160;fetch and verify every layer, re&#45;point the backings,</text>
<text text-anchor="start" x="819.5" y="-251.5" font-family="Arial" font-size="10.00" fill="#000000"> &#160;a new tip on top</text>
</g>
<!-- s3&#45;&gt;agent -->
<g id="edge10" class="edge">
<title>s3&#45;&gt;agent</title>
<path fill="none" stroke="#475569" stroke-dasharray="5,2" d="M936.0672,-186.4235C999.1708,-194.6467 1058.7928,-208.5376 1078.5,-232 1097.3662,-254.4613 1098.7245,-276.7535 1078.5,-298 1064.502,-312.7053 733.7455,-314.4802 713.5,-316 677.3296,-318.7152 638.9594,-322.1168 601.7121,-325.6964"/>
<polygon fill="#475569" stroke="#475569" points="601.3722,-322.2128 591.7559,-326.6599 602.0466,-329.1803 601.3722,-322.2128"/>
<text text-anchor="start" x="1092.5" y="-279" font-family="Arial" font-size="10.00" fill="#000000"> &#160;volumes/&lt;id&gt;/epoch: the second signal, read over</text>
<text text-anchor="start" x="1092.5" y="-268" font-family="Arial" font-size="10.00" fill="#000000"> &#160;a path that does not run through the CP. Higher than</text>
<text text-anchor="start" x="1092.5" y="-257" font-family="Arial" font-size="10.00" fill="#000000"> &#160;the epoch this host holds → give the volume up;</text>
<text text-anchor="start" x="1092.5" y="-246" font-family="Arial" font-size="10.00" fill="#000000"> &#160;no answer, and no CP either → pause the guest</text>
</g>
</g>
</svg>
